<svg xmlns="http://www.w3.org/2000/svg" viewBox="0 0 512 512"><style>@media (prefers-color-scheme:dark){path{fill:#fff !important}}path{fill:#000}</style><path d="M100.6 18.3q25.1 2.3 27.4 27.4v54.9q-2.3 25.1-27.4 27.4H45.7q-25.1-2.3-27.4-27.4V45.7q2.3-25.1 27.4-27.4h54.9ZM45.7 0q-19.4 0-32 13.7Q0 26.3 0 45.7v54.9q0 19.4 13.7 32 12.6 13.7 32 13.7h54.9q19.4 0 32-13.7 13.7-12.6 13.7-32V45.7q0-19.4-13.7-32Q120 0 100.6 0H45.7Zm54.9 201.1q25.1 2.3 27.4 27.5v54.8q-2.3 25.2-27.4 27.5H45.7q-25.1-2.3-27.4-27.5v-54.8q2.3-25.2 27.4-27.5h54.9ZM45.7 183q-19.4 0-32 13.7Q0 209 0 228.6v54.8q0 19.5 13.7 32 12.6 13.7 32 13.7h54.9q19.4 0 32-13.7 13.7-12.5 13.7-32v-54.8q0-19.5-13.7-32-12.6-13.7-32-13.7H45.7Zm0 201.1h54.9-54.9 54.9q25.1 2.3 27.4 27.4v54.9q-2.3 25.1-27.4 27.4H45.7q-25.1-2.3-27.4-27.4v-54.9q2.3-25.1 27.4-27.4ZM0 411.4v54.9-54.9 54.9q0 19.4 13.7 32 12.6 13.7 32 13.7h54.9q19.4 0 32-13.7 13.7-12.6 13.7-32v-54.9q0-19.4-13.7-32-12.6-13.7-32-13.7H45.7q-19.4 0-32 13.7Q0 392 0 411.4ZM283.4 18.3q25.2 2.3 27.5 27.4v54.9q-2.3 25.1-27.5 27.4h-54.8q-25.2-2.3-27.5-27.4V45.7q2.3-25.1 27.5-27.4h54.8ZM228.6 0q-19.5 0-32 13.7-13.7 12.6-13.7 32v54.9q0 19.4 13.7 32 12.5 13.7 32 13.7h54.8q19.5 0 32-13.7 13.7-12.6 13.7-32V45.7q0-19.4-13.7-32Q303 0 283.4 0h-54.8Zm0 201.1h54.8-54.8 54.8q25.2 2.3 27.5 27.5v54.8q-2.3 25.2-27.5 27.5h-54.8q-25.2-2.3-27.5-27.5v-54.8q2.3-25.2 27.5-27.5Zm-45.7 27.5v54.8-54.8 54.8q0 19.5 13.7 32 12.5 13.7 32 13.7h54.8q19.5 0 32-13.7 13.7-12.5 13.7-32v-54.8q0-19.5-13.7-32-12.5-13.7-32-13.7h-54.8q-19.5 0-32 13.7-13.7 12.5-13.7 32ZM283.4 384q25.2 2.3 27.5 27.4v54.9q-2.3 25.1-27.5 27.4h-54.8q-25.2-2.3-27.5-27.4v-54.9q2.3-25.1 27.5-27.4h54.8Zm-54.8-18.3q-19.5 0-32 13.7-13.7 12.6-13.7 32v54.9q0 19.4 13.7 32 12.5 13.7 32 13.7h54.8q19.5 0 32-13.7 13.7-12.6 13.7-32v-54.9q0-19.4-13.7-32-12.5-13.7-32-13.7h-54.8ZM411.4 18.3h54.9-54.9 54.9q25.1 2.3 27.4 27.4v54.9q-2.3 25.1-27.4 27.4h-54.9q-25.1-2.3-27.4-27.4V45.7q2.3-25.1 27.4-27.4Zm-45.7 27.4v54.9-54.9 54.9q0 19.4 13.7 32 12.6 13.7 32 13.7h54.9q19.4 0 32-13.7 13.7-12.6 13.7-32V45.7q0-19.4-13.7-32Q485.7 0 466.3 0h-54.9q-19.4 0-32 13.7-13.7 12.6-13.7 32Zm100.6 155.4q25.1 2.3 27.4 27.5v54.8q-2.3 25.2-27.4 27.5h-54.9q-25.1-2.3-27.4-27.5v-54.8q2.3-25.2 27.4-27.5h54.9ZM411.4 183q-19.4 0-32 13.7-13.7 12.5-13.7 32v54.8q0 19.5 13.7 32 12.6 13.7 32 13.7h54.9q19.4 0 32-13.7 13.7-12.5 13.7-32v-54.8q0-19.5-13.7-32-12.6-13.7-32-13.7h-54.9Zm0 201.1h54.9-54.9 54.9q25.1 2.3 27.4 27.4v54.9q-2.3 25.1-27.4 27.4h-54.9q-25.1-2.3-27.4-27.4v-54.9q2.3-25.1 27.4-27.4Zm-45.7 27.4v54.9-54.9 54.9q0 19.4 13.7 32 12.6 13.7 32 13.7h54.9q19.4 0 32-13.7 13.7-12.6 13.7-32v-54.9q0-19.4-13.7-32-12.6-13.7-32-13.7h-54.9q-19.4 0-32 13.7-13.7 12.6-13.7 32Z"/></svg>